<svg width="24" height="24" viewBox="0 0 24 24" fill="none" xmlns="http://www.w3.org/2000/svg">
<path d="M8 13C9.65685 13 11 14.3431 11 16V18C11 19.6569 9.65685 21 8 21H6C4.34315 21 3 19.6569 3 18V16C3 14.3431 4.34315 13 6 13H8ZM18 13C19.6569 13 21 14.3431 21 16V18C21 19.6569 19.6569 21 18 21H16C14.3431 21 13 19.6569 13 18V16C13 14.3431 14.3431 13 16 13H18ZM8 3C9.65685 3 11 4.34315 11 6V8C11 9.65685 9.65685 11 8 11H6C4.34315 11 3 9.65685 3 8V6C3 4.34315 4.34315 3 6 3H8ZM18 3C19.6569 3 21 4.34315 21 6V8C21 9.65685 19.6569 11 18 11H16C14.3431 11 13 9.65685 13 8V6C13 4.34315 14.3431 3 16 3H18Z" fill="#7D8592"/>
</svg>
