<svg width="24" height="24" viewBox="0 0 24 24" fill="none" xmlns="http://www.w3.org/2000/svg">
<path d="M19.5061 15.1304C19.9862 14.8577 20.5966 15.0263 20.8694 15.5064C21.1227 15.9522 20.9959 16.5103 20.5921 16.8062L20.4944 16.8696L13.8997 20.6167C13.07 21.0924 12.0573 21.1255 11.1995 20.7134L11.0178 20.6187L4.50124 16.8667C4.02268 16.5912 3.85776 15.9801 4.13307 15.5015C4.38892 15.057 4.93495 14.8835 5.39479 15.0816L5.49928 15.1333L12.012 18.8833C12.2522 19.0204 12.5456 19.0367 12.801 18.9321L12.9085 18.8804L19.5061 15.1304ZM19.6028 11.4712C20.0829 11.1984 20.6932 11.3662 20.9661 11.8462C21.2195 12.2921 21.0926 12.8501 20.6887 13.146L20.5911 13.2095L13.9964 16.9575C13.1666 17.4332 12.1539 17.4654 11.2962 17.0532L11.1145 16.9585L4.59792 13.2066C4.11952 12.9309 3.95526 12.3199 4.23073 11.8413C4.48664 11.3971 5.03171 11.2234 5.49147 11.4214L5.59596 11.4741L12.1096 15.2232C12.3498 15.36 12.6424 15.3764 12.8977 15.272L13.0051 15.2202L19.6028 11.4712ZM10.9573 2.63625C11.5972 2.2456 12.4024 2.2456 13.0423 2.63625L19.1585 6.37062C20.4459 7.15696 20.4328 9.0316 19.134 9.79933L13.0403 13.3999C12.4141 13.77 11.6361 13.7715 11.009 13.4028L4.87721 9.79738C3.57479 9.03157 3.55934 7.15303 4.84889 6.36574L10.9573 2.63625Z" fill="#3F8CFF"/>
</svg>
