<svg width="26" height="24" viewBox="0 0 26 24" fill="none" xmlns="http://www.w3.org/2000/svg">
<path d="M12.2285 11.2928C12.6182 10.9324 13.2321 10.9048 13.6562 11.2098L13.7578 11.2928L18.0829 15.2928C18.505 15.6833 18.505 16.3163 18.0829 16.7068C17.9132 16.8638 17.7008 16.9574 17.4804 16.9881C17.4694 16.9895 17.4583 16.9899 17.4472 16.991C17.3956 16.9967 17.3438 16.999 17.2919 16.9978C17.0688 16.9916 16.8473 16.923 16.6621 16.7898L16.5605 16.7068L15.9345 16.1277C15.9319 16.1278 15.9293 16.1276 15.9267 16.1277L14.0751 14.4148V20.9998C14.0751 21.5511 13.5918 21.9973 12.996 21.9988C12.4435 21.997 11.9882 21.612 11.9257 21.116L11.9189 20.9998V16.1297C11.9166 16.1296 11.9143 16.1288 11.9121 16.1287V14.4148L9.43256 16.7068C9.26277 16.8638 9.05042 16.9574 8.83002 16.9881C8.82092 16.9893 8.8118 16.99 8.80268 16.991C8.74949 16.9971 8.69603 16.999 8.64252 16.9978C8.41947 16.9916 8.19797 16.923 8.01264 16.7898L7.9101 16.7068C7.64881 16.4651 7.55 16.1299 7.61225 15.8172C7.60997 15.8169 7.60768 15.8165 7.60541 15.8162C7.63612 15.6631 7.70606 15.5154 7.81439 15.3865L7.90424 15.2928L12.2285 11.2928ZM3.16889 6.03593C4.68264 3.33593 7.81869 1.73593 11.0624 2.03593C14.3061 2.43597 17.0097 4.63562 17.7665 7.63554H19.0634C21.2259 7.63555 23.1724 9.13561 23.8212 11.1355C24.1456 12.5355 24.1454 14.3217 23.0663 15.0545C22.5568 15.4158 21.2266 15.6968 19.4746 15.8865C19.4457 15.4132 19.2385 14.9474 18.8476 14.5857L14.5224 10.5857L14.372 10.4598L14.3203 10.4197C13.4634 9.80356 12.2381 9.87085 11.4648 10.5857L7.13959 14.5857L7.00385 14.7254C6.76036 15.0139 6.61043 15.3372 6.54779 15.6658C5.55497 15.5049 4.69114 15.3027 4.02631 15.0545C1.58543 12.6555 1.87159 8.53598 3.16889 6.03593Z" fill="#3F8CFF"/>
</svg>
